G04 DipTrace 3.3.0.0*
G04 Bottom.gbr*
%MOIN*%
G04 #@! TF.FileFunction,Copper,L2,Bot*
G04 #@! TF.Part,Single*
G04 #@! TA.AperFunction,Conductor*
%ADD14C,0.012992*%
G04 #@! TA.AperFunction,ComponentPad*
%ADD15C,0.059055*%
%ADD16R,0.066929X0.066929*%
%ADD17C,0.066929*%
%ADD18C,0.05*%
%ADD19C,0.05*%
%ADD20C,0.064961*%
%ADD21O,0.11811X0.07874*%
%ADD22O,0.03937X0.059055*%
%ADD23R,0.041339X0.066929*%
%ADD25R,0.0585X0.0585*%
%ADD26C,0.0585*%
%FSLAX26Y26*%
G04*
G70*
G90*
G75*
G01*
G04 Bottom*
%LPD*%
X993701Y2112451D2*
D14*
Y2012451D1*
Y1893701D1*
X943701D1*
X1293701Y2212451D2*
X1393701D1*
Y1593701D1*
X1443701Y2693701D2*
X993701D1*
X895276Y2595276D1*
X837402D1*
X823375D1*
X649950Y2768701D1*
Y2974950D1*
X643701Y743701D2*
X499950Y887451D1*
Y1793699D1*
X599951Y1893701D1*
X843701D1*
X1293701Y2312451D2*
Y2543701D1*
X1443701Y2693701D1*
X837402Y2595276D2*
X712450D1*
Y2024951D1*
X843701Y1893701D1*
X643701Y1443701D2*
Y1437451D1*
X1118702D1*
X1174951Y1493701D1*
X1437450D1*
Y2262451D1*
X1162450D1*
Y2212451D1*
X993701D1*
Y2312451D2*
Y2387451D1*
X824950D1*
Y1963596D1*
X893701D1*
Y1837450D1*
X637451D1*
X587451Y1787450D1*
Y1643701D1*
X643701D1*
X1293701Y2012451D2*
Y1931201D1*
X1106201Y1743701D1*
X643701D1*
X1293701Y2112451D2*
X1337450D1*
Y1912450D1*
X968701Y1543701D1*
X643701D1*
D15*
Y643701D3*
Y743701D3*
Y843701D3*
Y943701D3*
Y1043701D3*
Y1143701D3*
Y1243701D3*
Y1343701D3*
Y1443701D3*
Y1543701D3*
Y1643701D3*
Y1743701D3*
X1243701Y643701D3*
Y743701D3*
Y843701D3*
Y943701D3*
Y1043701D3*
Y1143701D3*
Y1243701D3*
Y1343701D3*
Y1443701D3*
Y1543701D3*
Y1643701D3*
Y1743701D3*
D16*
X1143701Y1893701D3*
D17*
X1043701D3*
X943701D3*
X843701D3*
D18*
X768701Y2731201D3*
D19*
Y2431201D3*
D18*
X649950Y2699951D3*
D19*
Y2399951D3*
D18*
X524950Y2662451D3*
D19*
Y2362451D3*
D18*
X1393701Y893701D3*
D19*
Y1193701D3*
D18*
Y1293701D3*
D19*
Y1593701D3*
D20*
X1443701Y2693701D3*
Y2792126D3*
Y2595276D3*
X837402D3*
Y2792126D3*
D21*
X1140551Y2957480D3*
Y2429921D3*
D22*
X549950Y2974950D3*
X649950D3*
D23*
X699950D3*
D22*
X599950D3*
D25*
X993701Y2312451D3*
D26*
Y2212451D3*
Y2112451D3*
Y2012451D3*
X1293701D3*
Y2112451D3*
Y2212451D3*
Y2312451D3*
D25*
X606201D3*
D26*
Y2212451D3*
Y2112451D3*
Y2012451D3*
X906201D3*
Y2112451D3*
Y2212451D3*
Y2312451D3*
D16*
X1031201Y1062451D3*
D17*
X854035D3*
Y806546D3*
X1031201D3*
M02*
