M48
INCH
T01C0.022
T02C0.0295
T03C0.0354
T04C0.039
T05C0.0394
T06C0.0433
T07C0.1
%
T01
X+007687Y+027312
X+006500Y+027000
X+005250Y+026625
X+006500Y+024000
X+007687Y+024312
X+005250Y+023625
X+013937Y+015937
X+013937Y+012937
X+013937Y+011937
X+013937Y+008937
T02
X+005500Y+029750
X+006000Y+029750
X+006500Y+029750
X+007000Y+029750
T03
X+006437Y+006437
X+006437Y+007437
X+006437Y+008437
X+006437Y+009437
X+006437Y+010437
X+006437Y+011437
X+006437Y+012437
X+006437Y+013437
X+006437Y+014437
X+006437Y+015437
X+006437Y+016437
X+006437Y+017437
X+012437Y+017437
X+012437Y+016437
X+012437Y+015437
X+012437Y+014437
X+012437Y+013437
X+012437Y+012437
X+012437Y+011437
X+012437Y+010437
X+012437Y+009437
X+012437Y+008437
X+012437Y+007437
X+012437Y+006437
X+014437Y+025953
X+014437Y+026937
X+014437Y+027921
X+008374Y+027921
X+008374Y+025953
T04
X+006437Y+005437
X+012437Y+005437
X+012937Y+020125
X+012937Y+021125
X+012937Y+022125
X+012937Y+023125
X+009937Y+023125
X+009062Y+023125
X+009062Y+022125
X+009937Y+022125
X+009937Y+021125
X+009062Y+021125
X+009062Y+020125
X+009937Y+020125
X+006062Y+020125
X+006062Y+021125
X+006062Y+022125
X+006062Y+023125
T05
X+010312Y+010625
X+008540Y+010625
X+008540Y+008065
X+010312Y+008065
T06
X+011437Y+018937
X+010437Y+018937
X+009437Y+018937
X+008437Y+018937
X+011484Y+024299G85X+011327Y+024299
X+011484Y+029575G85X+011327Y+029575
T07
X+014437Y+030937
X+014437Y+004937
X+004937Y+004937
T00
M30
