G04 DipTrace 3.3.0.0*
G04 Top.gbr*
%MOIN*%
G04 #@! TF.FileFunction,Copper,L1,Top*
G04 #@! TF.Part,Single*
G04 #@! TA.AperFunction,Conductor*
%ADD14C,0.012992*%
G04 #@! TA.AperFunction,ComponentPad*
%ADD15C,0.059055*%
%ADD16R,0.066929X0.066929*%
%ADD17C,0.066929*%
%ADD18C,0.05*%
%ADD19C,0.05*%
%ADD20C,0.064961*%
%ADD21O,0.11811X0.07874*%
%ADD22O,0.03937X0.059055*%
%ADD23R,0.041339X0.066929*%
%ADD25R,0.0585X0.0585*%
%ADD26C,0.0585*%
%FSLAX26Y26*%
G04*
G70*
G90*
G75*
G01*
G04 Top*
%LPD*%
X1393701Y893701D2*
D14*
X1243701Y1043701D1*
X1237451D1*
X1043701Y1237451D1*
Y1793701D1*
X1143701Y1893701D1*
X1393701Y1293701D2*
X1243701Y1143701D1*
X1043701Y1893701D2*
Y1943701D1*
X1093701Y1993701D1*
X1193701D1*
X1243701Y1943701D1*
Y1893701D1*
X1150182Y1800182D1*
Y1237219D1*
X1243701Y1143701D1*
X1393701Y1193701D2*
X1493701D1*
Y1493701D1*
X1393701Y1593701D1*
X1493701Y1493701D2*
Y693701D1*
X1293701Y493701D1*
X1143701D1*
X593701D1*
X543701Y593701D1*
Y943701D1*
X643701D1*
X943701Y1893701D2*
Y1274951D1*
X1143701Y1074951D1*
Y493701D1*
X606201Y2112451D2*
Y2012451D1*
X824950D1*
X943701Y1893701D1*
X906201Y2212451D2*
Y2262451D1*
X1293701D1*
Y2212451D1*
X549950Y2974950D2*
Y2762451D1*
X524950D1*
Y2662451D1*
X599950Y2974950D2*
Y2699950D1*
X649950D1*
X699950Y2974950D2*
Y2731201D1*
X768701D1*
X906201Y2312451D2*
Y2374950D1*
X1293701D1*
Y2312451D1*
X643701Y743701D2*
X968356D1*
X1031201Y806546D1*
X768701Y2431201D2*
Y2518701D1*
X437451D1*
Y1037450D1*
X637450D1*
X643701Y1043701D1*
X649950Y2399951D2*
Y2474950D1*
X562450D1*
X462450Y2374950D1*
Y1324951D1*
X643701Y1143701D1*
X524950Y2362451D2*
X487450D1*
Y1399951D1*
X643701Y1243701D1*
X837402Y2792126D2*
Y3043701D1*
X1343701D1*
X1493701Y2893701D1*
Y1693701D1*
X1343701D1*
Y1543701D1*
X1243701D1*
X1443701Y2792126D2*
X1343701D1*
Y1843701D1*
X1243701Y1743701D1*
X1443701Y2595276D2*
X1393701D1*
Y1793701D1*
X1243701Y1643701D1*
X606201Y2212451D2*
X512450D1*
Y1574951D1*
X643701Y1443701D1*
X606201Y2312451D2*
X662450D1*
Y2168701D1*
X537450D1*
Y1749951D1*
X643701Y1643701D1*
X906201Y2112451D2*
Y2162451D1*
X1293701D1*
Y2112451D1*
X1243701Y1443701D2*
X1187450D1*
Y1756199D1*
X1268701Y1837450D1*
Y1968701D1*
X1174950Y2062451D1*
X906201D1*
Y2012451D1*
X643701Y843701D2*
Y852115D1*
X854035Y1062451D1*
D15*
X643701Y643701D3*
Y743701D3*
Y843701D3*
Y943701D3*
Y1043701D3*
Y1143701D3*
Y1243701D3*
Y1343701D3*
Y1443701D3*
Y1543701D3*
Y1643701D3*
Y1743701D3*
X1243701Y643701D3*
Y743701D3*
Y843701D3*
Y943701D3*
Y1043701D3*
Y1143701D3*
Y1243701D3*
Y1343701D3*
Y1443701D3*
Y1543701D3*
Y1643701D3*
Y1743701D3*
D16*
X1143701Y1893701D3*
D17*
X1043701D3*
X943701D3*
X843701D3*
D18*
X768701Y2731201D3*
D19*
Y2431201D3*
D18*
X649950Y2699951D3*
D19*
Y2399951D3*
D18*
X524950Y2662451D3*
D19*
Y2362451D3*
D18*
X1393701Y893701D3*
D19*
Y1193701D3*
D18*
Y1293701D3*
D19*
Y1593701D3*
D20*
X1443701Y2693701D3*
Y2792126D3*
Y2595276D3*
X837402D3*
Y2792126D3*
D21*
X1140551Y2957480D3*
Y2429921D3*
D22*
X549950Y2974950D3*
X649950D3*
D23*
X699950D3*
D22*
X599950D3*
D25*
X993701Y2312451D3*
D26*
Y2212451D3*
Y2112451D3*
Y2012451D3*
X1293701D3*
Y2112451D3*
Y2212451D3*
Y2312451D3*
D25*
X606201D3*
D26*
Y2212451D3*
Y2112451D3*
Y2012451D3*
X906201D3*
Y2112451D3*
Y2212451D3*
Y2312451D3*
D16*
X1031201Y1062451D3*
D17*
X854035D3*
Y806546D3*
X1031201D3*
M02*
