G04 DipTrace 3.3.0.0*
G04 TopMask.gbr*
%MOIN*%
G04 #@! TF.FileFunction,Soldermask,Top*
G04 #@! TF.Part,Single*
%ADD17C,0.066929*%
%ADD27C,0.039*%
%ADD28C,0.1*%
%ADD36C,0.066374*%
%ADD38R,0.066374X0.066374*%
%ADD40R,0.049213X0.074803*%
%ADD42O,0.047244X0.066929*%
%ADD44O,0.125984X0.086614*%
%ADD46C,0.072835*%
%ADD48C,0.057874*%
%ADD50C,0.057874*%
%ADD52C,0.074803*%
%ADD53R,0.074803X0.074803*%
%FSLAX26Y26*%
G04*
G70*
G90*
G75*
G01*
G04 TopMask*
%LPD*%
D17*
X643701Y643701D3*
Y743701D3*
Y843701D3*
Y943701D3*
Y1043701D3*
Y1143701D3*
Y1243701D3*
Y1343701D3*
Y1443701D3*
Y1543701D3*
Y1643701D3*
Y1743701D3*
X1243701Y643701D3*
Y743701D3*
Y843701D3*
Y943701D3*
Y1043701D3*
Y1143701D3*
Y1243701D3*
Y1343701D3*
Y1443701D3*
Y1543701D3*
Y1643701D3*
Y1743701D3*
D27*
X643701Y543701D3*
X1243701D3*
D28*
X1443701Y3093701D3*
X493701Y493701D3*
X1443701D3*
D53*
X1143701Y1893701D3*
D52*
X1043701D3*
X943701D3*
X843701D3*
D50*
X768701Y2731201D3*
D48*
Y2431201D3*
D50*
X649950Y2699951D3*
D48*
Y2399951D3*
D50*
X524950Y2662451D3*
D48*
Y2362451D3*
D50*
X1393701Y893701D3*
D48*
Y1193701D3*
D50*
Y1293701D3*
D48*
Y1593701D3*
D46*
X1443701Y2693701D3*
Y2792126D3*
Y2595276D3*
X837402D3*
Y2792126D3*
D44*
X1140551Y2957480D3*
Y2429921D3*
D42*
X549950Y2974950D3*
X649950D3*
D40*
X699950D3*
D42*
X599950D3*
D38*
X993701Y2312451D3*
D36*
Y2212451D3*
Y2112451D3*
Y2012451D3*
X1293701D3*
Y2112451D3*
Y2212451D3*
Y2312451D3*
D38*
X606201D3*
D36*
Y2212451D3*
Y2112451D3*
Y2012451D3*
X906201D3*
Y2112451D3*
Y2212451D3*
Y2312451D3*
D53*
X1031201Y1062451D3*
D52*
X854035D3*
Y806546D3*
X1031201D3*
M02*
